<svg width="521.201" height="70.702" viewBox="0 0 521.201 70.702" xmlns="http://www.w3.org/2000/svg"><g id="svgGroup" stroke-linecap="round" fill-rule="evenodd" font-size="9pt" stroke="#000" stroke-width="0.25mm" fill="#000" style="stroke:#000;stroke-width:0.25mm;fill:#000"><path d="M 230.701 35.9 L 232.201 35.9 A 41.63 41.63 0 0 0 234.083 35.861 Q 235.786 35.783 236.943 35.554 A 8.943 8.943 0 0 0 237.601 35.4 A 20.459 20.459 0 0 1 238.362 39.714 A 18.481 18.481 0 0 1 238.401 40.9 A 2.661 2.661 0 0 1 238.338 41.504 Q 238.105 42.5 237.001 42.5 L 231.101 42.5 Q 229.001 42.5 227.751 43.6 A 3.619 3.619 0 0 0 226.508 46.223 A 4.958 4.958 0 0 0 226.501 46.5 L 226.501 60.1 A 4.62 4.62 0 0 0 226.662 61.356 A 3.347 3.347 0 0 0 227.751 63.05 A 4.284 4.284 0 0 0 229.466 63.91 Q 230.102 64.073 230.852 64.096 A 8.101 8.101 0 0 0 231.101 64.1 Q 233.036 64.1 234.292 63.208 A 4.229 4.229 0 0 0 234.501 63.05 A 3.421 3.421 0 0 0 235.762 60.728 A 4.969 4.969 0 0 0 235.801 60.1 L 235.801 57.6 L 235.501 52.5 Q 236.901 52.2 238.301 52.2 Q 239.701 52.2 241.101 52.6 A 6.334 6.334 0 0 1 242.114 52.959 Q 242.631 53.199 242.98 53.51 A 2.046 2.046 0 0 1 243.701 55.1 L 243.701 61.5 A 7.81 7.81 0 0 1 241.097 67.488 A 10.209 10.209 0 0 1 240.301 68.15 Q 236.901 70.7 231.151 70.7 A 19.149 19.149 0 0 1 227.398 70.354 Q 224.205 69.716 222.001 67.9 A 9.134 9.134 0 0 1 218.701 61.754 A 13.181 13.181 0 0 1 218.601 60.1 L 218.601 46.1 A 11.137 11.137 0 0 1 218.943 43.255 A 7.658 7.658 0 0 1 221.501 39.2 Q 218.601 36.8 218.601 32.3 L 218.601 14.3 A 11.788 11.788 0 0 1 219.059 10.925 A 8.908 8.908 0 0 1 222.001 6.5 A 11.747 11.747 0 0 1 226.647 4.208 Q 228.387 3.766 230.437 3.709 A 22.069 22.069 0 0 1 231.051 3.7 Q 235.31 3.7 238.234 5.15 A 10.523 10.523 0 0 1 240.001 6.25 Q 243.243 8.756 243.3 12.758 A 10.088 10.088 0 0 1 243.301 12.9 L 243.301 21.3 Q 243.301 22.831 241.42 23.566 A 6.916 6.916 0 0 1 240.701 23.8 Q 239.301 24.2 237.901 24.2 Q 236.501 24.2 235.101 23.9 A 39.09 39.09 0 0 0 235.371 20.458 A 46.134 46.134 0 0 0 235.401 18.8 L 235.401 14.3 A 5.187 5.187 0 0 0 235.16 12.648 Q 234.386 10.344 231.125 10.301 A 9.474 9.474 0 0 0 231.001 10.3 A 6.772 6.772 0 0 0 229.663 10.424 Q 228.488 10.661 227.701 11.35 Q 226.501 12.4 226.501 14.3 L 226.501 31.9 A 4.571 4.571 0 0 0 226.683 33.223 A 3.573 3.573 0 0 0 227.651 34.8 A 3.879 3.879 0 0 0 229.639 35.803 A 5.554 5.554 0 0 0 230.701 35.9 Z M 0.001 60.5 L 0.001 14.3 A 11.788 11.788 0 0 1 0.459 10.925 A 8.908 8.908 0 0 1 3.401 6.5 A 11.64 11.64 0 0 1 7.822 4.275 Q 9.945 3.7 12.551 3.7 A 21.068 21.068 0 0 1 16.226 4.001 Q 19.469 4.577 21.701 6.25 A 8.832 8.832 0 0 1 23.933 8.628 A 7.9 7.9 0 0 1 25.101 12.9 L 25.101 25.3 Q 25.101 26.831 23.22 27.566 A 6.916 6.916 0 0 1 22.501 27.8 Q 21.101 28.2 19.701 28.2 Q 18.301 28.2 16.901 27.9 A 39.09 39.09 0 0 0 17.171 24.458 A 46.134 46.134 0 0 0 17.201 22.8 L 17.201 14.3 A 4.453 4.453 0 0 0 17.033 13.044 A 3.336 3.336 0 0 0 15.901 11.35 Q 14.636 10.328 12.613 10.301 A 8.269 8.269 0 0 0 12.501 10.3 A 6.81 6.81 0 0 0 11.108 10.434 Q 9.954 10.675 9.151 11.35 A 3.423 3.423 0 0 0 7.96 13.51 A 5.017 5.017 0 0 0 7.901 14.3 L 7.901 60.1 A 4.197 4.197 0 0 0 8.119 61.483 A 3.542 3.542 0 0 0 9.151 63 Q 10.368 64.071 12.392 64.099 A 7.892 7.892 0 0 0 12.501 64.1 Q 14.436 64.1 15.692 63.208 A 4.229 4.229 0 0 0 15.901 63.05 A 3.421 3.421 0 0 0 17.162 60.728 A 4.969 4.969 0 0 0 17.201 60.1 L 17.201 57.9 L 16.901 52.8 Q 18.301 52.5 19.701 52.5 Q 21.101 52.5 22.501 52.9 A 6.334 6.334 0 0 1 23.514 53.259 Q 24.031 53.499 24.38 53.81 A 2.046 2.046 0 0 1 25.101 55.4 L 25.101 60.9 A 8.398 8.398 0 0 1 22.285 67.271 A 11.587 11.587 0 0 1 21.551 67.9 A 12.552 12.552 0 0 1 16.615 70.229 Q 14.638 70.7 12.301 70.7 A 20.204 20.204 0 0 1 8.684 70.396 Q 5.473 69.811 3.301 68.1 A 8.41 8.41 0 0 1 0.207 62.85 A 12.748 12.748 0 0 1 0.001 60.5 Z M 68.801 29.7 L 68.801 61.5 A 56.837 56.837 0 0 0 68.898 64.933 Q 69.062 67.631 69.501 69.7 A 45.273 45.273 0 0 1 65.659 70.039 A 56.306 56.306 0 0 1 63.001 70.1 A 2.805 2.805 0 0 1 62.359 70.033 Q 61.301 69.784 61.301 68.6 L 61.301 29 A 9.31 9.31 0 0 0 61.248 27.969 Q 61.101 26.661 60.551 26 A 2.047 2.047 0 0 0 59.798 25.452 Q 59.013 25.1 57.701 25.1 A 8.6 8.6 0 0 1 57.694 24.77 Q 57.694 22.41 59.051 21.1 Q 60.501 19.7 63.701 19.7 A 5.098 5.098 0 0 1 65.808 20.118 Q 67.415 20.838 68.301 22.8 A 12.661 12.661 0 0 1 70.963 20.851 A 9.352 9.352 0 0 1 75.451 19.7 A 9.608 9.608 0 0 1 78.306 20.105 A 7.611 7.611 0 0 1 81.651 22.2 Q 83.732 24.415 83.97 28.276 A 16.66 16.66 0 0 1 84.001 29.3 L 84.001 61.4 A 9.31 9.31 0 0 0 84.054 62.431 Q 84.2 63.739 84.751 64.4 A 2.047 2.047 0 0 0 85.503 64.949 Q 86.288 65.3 87.601 65.3 A 8.6 8.6 0 0 1 87.607 65.631 Q 87.607 67.99 86.251 69.3 Q 85.022 70.487 82.824 70.668 A 10.033 10.033 0 0 1 82.001 70.7 A 7.287 7.287 0 0 1 80.392 70.534 Q 79.359 70.3 78.606 69.736 A 4.106 4.106 0 0 1 77.851 69 Q 76.629 67.462 76.513 64.123 A 20.774 20.774 0 0 1 76.501 63.4 L 76.501 29.9 Q 76.501 27.268 74.338 26.735 A 5.184 5.184 0 0 0 73.101 26.6 A 4.226 4.226 0 0 0 69.646 28.326 A 7.404 7.404 0 0 0 68.801 29.7 Z M 476.501 29.7 L 476.501 61.5 A 56.837 56.837 0 0 0 476.598 64.933 Q 476.762 67.631 477.201 69.7 A 45.273 45.273 0 0 1 473.359 70.039 A 56.306 56.306 0 0 1 470.701 70.1 A 2.805 2.805 0 0 1 470.059 70.033 Q 469.001 69.784 469.001 68.6 L 469.001 29 A 9.31 9.31 0 0 0 468.948 27.969 Q 468.801 26.661 468.251 26 A 2.047 2.047 0 0 0 467.498 25.452 Q 466.713 25.1 465.401 25.1 A 8.6 8.6 0 0 1 465.394 24.77 Q 465.394 22.41 466.751 21.1 Q 468.201 19.7 471.401 19.7 A 5.098 5.098 0 0 1 473.508 20.118 Q 475.115 20.838 476.001 22.8 A 12.661 12.661 0 0 1 478.663 20.851 A 9.352 9.352 0 0 1 483.151 19.7 A 9.608 9.608 0 0 1 486.006 20.105 A 7.611 7.611 0 0 1 489.351 22.2 Q 491.432 24.415 491.67 28.276 A 16.66 16.66 0 0 1 491.701 29.3 L 491.701 61.4 A 9.31 9.31 0 0 0 491.754 62.431 Q 491.9 63.739 492.451 64.4 A 2.047 2.047 0 0 0 493.203 64.949 Q 493.988 65.3 495.301 65.3 A 8.6 8.6 0 0 1 495.307 65.631 Q 495.307 67.99 493.951 69.3 Q 492.722 70.487 490.524 70.668 A 10.033 10.033 0 0 1 489.701 70.7 A 7.287 7.287 0 0 1 488.092 70.534 Q 487.059 70.3 486.306 69.736 A 4.106 4.106 0 0 1 485.551 69 Q 484.329 67.462 484.213 64.123 A 20.774 20.774 0 0 1 484.201 63.4 L 484.201 29.9 Q 484.201 27.268 482.038 26.735 A 5.184 5.184 0 0 0 480.801 26.6 A 4.226 4.226 0 0 0 477.346 28.326 A 7.404 7.404 0 0 0 476.501 29.7 Z M 322.801 61.3 L 322.801 26.7 L 319.701 27.2 A 24.072 24.072 0 0 1 319.274 25.342 Q 319.103 24.421 319.039 23.6 A 12.218 12.218 0 0 1 319.001 22.65 Q 319.001 20.7 320.301 20.7 L 323.001 20.7 L 324.401 11.3 A 2.365 2.365 0 0 1 325.982 9.429 Q 326.824 9.1 328.101 9.1 Q 329.101 9.1 330.301 9.3 L 330.301 20.7 L 339.001 20.7 L 344.201 20.2 A 32.029 32.029 0 0 1 344.524 22.205 Q 344.646 23.159 344.683 24.004 A 16.677 16.677 0 0 1 344.701 24.75 Q 344.701 26.7 343.401 26.7 L 330.301 26.7 L 330.301 60.1 Q 330.301 61.649 330.872 62.681 A 3.505 3.505 0 0 0 331.351 63.35 A 3.412 3.412 0 0 0 333.827 64.497 A 4.331 4.331 0 0 0 334.001 64.5 Q 337.701 64.5 337.701 59.6 L 337.701 52.3 L 337.401 47.6 Q 338.701 47.3 340.051 47.3 Q 341.401 47.3 342.601 47.7 Q 343.741 47.985 344.339 48.519 A 1.9 1.9 0 0 1 345.001 50 L 345.001 62 A 8.759 8.759 0 0 1 344.555 64.862 A 7.167 7.167 0 0 1 341.801 68.45 A 11.863 11.863 0 0 1 337.647 70.269 Q 336.045 70.646 334.187 70.693 A 21.16 21.16 0 0 1 333.651 70.7 A 15.585 15.585 0 0 1 330.351 70.371 Q 328.17 69.898 326.52 68.748 A 9.369 9.369 0 0 1 325.751 68.15 A 8.374 8.374 0 0 1 322.841 62.284 A 11.693 11.693 0 0 1 322.801 61.3 Z M 505.601 57.9 L 505.601 59.8 Q 505.601 63.629 508.533 64.2 A 5.853 5.853 0 0 0 509.651 64.3 A 4.74 4.74 0 0 0 511.399 64.003 Q 513.701 63.094 513.701 59.4 L 513.701 55.3 A 8.264 8.264 0 0 0 513.471 53.288 A 5.186 5.186 0 0 0 511.101 50 L 502.301 44.7 A 7.836 7.836 0 0 1 498.709 39.545 A 13.15 13.15 0 0 1 498.401 36.6 L 498.401 29.6 A 11.056 11.056 0 0 1 498.889 26.239 A 8.961 8.961 0 0 1 501.251 22.45 Q 503.633 20.151 507.902 19.774 A 19.881 19.881 0 0 1 509.651 19.7 A 21.442 21.442 0 0 1 512.824 19.919 Q 514.46 20.165 515.779 20.685 A 9.051 9.051 0 0 1 518.101 22 A 7.439 7.439 0 0 1 520.966 27.445 A 10.311 10.311 0 0 1 521.001 28.3 L 521.001 34.6 A 2.392 2.392 0 0 1 521 34.627 Q 520.982 36.305 518.601 36.9 Q 517.401 37.3 516.051 37.3 Q 514.701 37.3 513.401 37 A 32.577 32.577 0 0 0 513.658 34.133 A 38.948 38.948 0 0 0 513.701 32.3 L 513.701 30.8 A 8.536 8.536 0 0 0 513.544 29.085 Q 513.003 26.461 510.598 26.144 A 5.333 5.333 0 0 0 509.901 26.1 A 5.47 5.47 0 0 0 508.293 26.316 Q 506.527 26.859 506.064 28.772 A 6.521 6.521 0 0 0 505.901 30.3 L 505.901 34.9 A 8.596 8.596 0 0 0 506.054 36.586 Q 506.24 37.518 506.656 38.212 A 3.746 3.746 0 0 0 508.101 39.6 L 516.901 44.7 A 8.004 8.004 0 0 1 520.995 50.525 A 12.986 12.986 0 0 1 521.201 52.9 L 521.201 60.4 A 13.014 13.014 0 0 1 520.833 63.585 A 8.976 8.976 0 0 1 518.351 67.95 A 9.086 9.086 0 0 1 514.74 70.045 Q 513.328 70.495 511.617 70.636 A 19.71 19.71 0 0 1 510.001 70.7 A 22.403 22.403 0 0 1 506.797 70.485 Q 505.063 70.234 503.648 69.69 A 10.183 10.183 0 0 1 501.401 68.5 A 7.057 7.057 0 0 1 498.365 63.346 A 9.845 9.845 0 0 1 498.301 62.2 L 498.301 55.6 A 1.962 1.962 0 0 1 499.274 53.881 Q 499.638 53.643 500.139 53.467 A 6.34 6.34 0 0 1 500.701 53.3 Q 501.901 52.9 503.251 52.9 Q 504.601 52.9 505.901 53.2 A 32.577 32.577 0 0 0 505.643 56.067 A 38.948 38.948 0 0 0 505.601 57.9 Z M 91.301 59.5 L 91.301 29.5 A 11.755 11.755 0 0 1 91.981 25.328 Q 94.11 19.7 102.901 19.7 Q 106.605 19.7 109.149 20.914 A 9.14 9.14 0 0 1 110.901 22 A 7.371 7.371 0 0 1 113.766 27.366 A 9.828 9.828 0 0 1 113.801 28.2 L 113.801 36.4 A 1.962 1.962 0 0 1 112.828 38.119 Q 112.463 38.357 111.963 38.533 A 6.34 6.34 0 0 1 111.401 38.7 Q 110.201 39.1 108.851 39.1 Q 107.501 39.1 106.201 38.8 A 32.577 32.577 0 0 0 106.458 35.933 A 38.948 38.948 0 0 0 106.501 34.1 L 106.501 30.8 A 11.051 11.051 0 0 0 106.437 29.571 Q 106.29 28.261 105.802 27.481 A 2.739 2.739 0 0 0 105.601 27.2 A 2.646 2.646 0 0 0 104.518 26.429 Q 104.066 26.247 103.495 26.165 A 7.079 7.079 0 0 0 102.501 26.1 Q 99.233 26.1 98.851 28.518 A 4.375 4.375 0 0 0 98.801 29.2 L 98.801 58.3 Q 98.801 61.4 99.801 62.8 Q 100.691 64.046 102.65 64.183 A 7.178 7.178 0 0 0 103.151 64.2 A 7.597 7.597 0 0 0 106.661 63.321 A 9.784 9.784 0 0 0 107.701 62.7 A 11.562 11.562 0 0 0 108.893 61.777 Q 109.451 61.278 109.839 60.769 A 4.602 4.602 0 0 0 110.501 59.6 A 9.514 9.514 0 0 1 112.332 60.661 Q 113.381 61.452 113.923 62.447 A 4.84 4.84 0 0 1 114.501 64.8 A 2.149 2.149 0 0 1 113.793 66.436 A 2.801 2.801 0 0 1 113.601 66.6 Q 109.601 70.7 101.501 70.7 A 13.257 13.257 0 0 1 97.295 70.09 Q 91.301 68.086 91.301 59.5 Z M 293.301 59.5 L 293.301 29.5 A 11.755 11.755 0 0 1 293.981 25.328 Q 296.11 19.7 304.901 19.7 Q 308.605 19.7 311.149 20.914 A 9.14 9.14 0 0 1 312.901 22 A 7.371 7.371 0 0 1 315.766 27.366 A 9.828 9.828 0 0 1 315.801 28.2 L 315.801 36.4 A 1.962 1.962 0 0 1 314.828 38.119 Q 314.463 38.357 313.963 38.533 A 6.34 6.34 0 0 1 313.401 38.7 Q 312.201 39.1 310.851 39.1 Q 309.501 39.1 308.201 38.8 A 32.577 32.577 0 0 0 308.458 35.933 A 38.948 38.948 0 0 0 308.501 34.1 L 308.501 30.8 A 11.051 11.051 0 0 0 308.437 29.571 Q 308.29 28.261 307.802 27.481 A 2.739 2.739 0 0 0 307.601 27.2 A 2.646 2.646 0 0 0 306.518 26.429 Q 306.066 26.247 305.495 26.165 A 7.079 7.079 0 0 0 304.501 26.1 Q 301.233 26.1 300.851 28.518 A 4.375 4.375 0 0 0 300.801 29.2 L 300.801 58.3 Q 300.801 61.4 301.801 62.8 Q 302.691 64.046 304.65 64.183 A 7.178 7.178 0 0 0 305.151 64.2 A 7.597 7.597 0 0 0 308.661 63.321 A 9.784 9.784 0 0 0 309.701 62.7 A 11.562 11.562 0 0 0 310.893 61.777 Q 311.451 61.278 311.839 60.769 A 4.602 4.602 0 0 0 312.501 59.6 A 9.514 9.514 0 0 1 314.332 60.661 Q 315.381 61.452 315.923 62.447 A 4.84 4.84 0 0 1 316.501 64.8 A 2.149 2.149 0 0 1 315.793 66.436 A 2.801 2.801 0 0 1 315.601 66.6 Q 311.601 70.7 303.501 70.7 A 13.257 13.257 0 0 1 299.295 70.09 Q 293.301 68.086 293.301 59.5 Z M 393.901 59.5 L 393.901 29.5 A 11.755 11.755 0 0 1 394.581 25.328 Q 396.71 19.7 405.501 19.7 Q 409.205 19.7 411.749 20.914 A 9.14 9.14 0 0 1 413.501 22 A 7.371 7.371 0 0 1 416.366 27.366 A 9.828 9.828 0 0 1 416.401 28.2 L 416.401 36.4 A 1.962 1.962 0 0 1 415.428 38.119 Q 415.063 38.357 414.563 38.533 A 6.34 6.34 0 0 1 414.001 38.7 Q 412.801 39.1 411.451 39.1 Q 410.101 39.1 408.801 38.8 A 32.577 32.577 0 0 0 409.058 35.933 A 38.948 38.948 0 0 0 409.101 34.1 L 409.101 30.8 A 11.051 11.051 0 0 0 409.037 29.571 Q 408.89 28.261 408.402 27.481 A 2.739 2.739 0 0 0 408.201 27.2 A 2.646 2.646 0 0 0 407.118 26.429 Q 406.666 26.247 406.095 26.165 A 7.079 7.079 0 0 0 405.101 26.1 Q 401.833 26.1 401.451 28.518 A 4.375 4.375 0 0 0 401.401 29.2 L 401.401 58.3 Q 401.401 61.4 402.401 62.8 Q 403.291 64.046 405.25 64.183 A 7.178 7.178 0 0 0 405.751 64.2 A 7.597 7.597 0 0 0 409.261 63.321 A 9.784 9.784 0 0 0 410.301 62.7 A 11.562 11.562 0 0 0 411.493 61.777 Q 412.051 61.278 412.439 60.769 A 4.602 4.602 0 0 0 413.101 59.6 A 9.514 9.514 0 0 1 414.932 60.661 Q 415.981 61.452 416.523 62.447 A 4.84 4.84 0 0 1 417.101 64.8 A 2.149 2.149 0 0 1 416.393 66.436 A 2.801 2.801 0 0 1 416.201 66.6 Q 412.201 70.7 404.101 70.7 A 13.257 13.257 0 0 1 399.895 70.09 Q 393.901 68.086 393.901 59.5 Z M 460.601 29.6 L 460.601 61.4 A 9.31 9.31 0 0 0 460.654 62.431 Q 460.8 63.739 461.351 64.4 A 2.047 2.047 0 0 0 462.103 64.949 Q 462.888 65.3 464.201 65.3 A 8.6 8.6 0 0 1 464.207 65.631 Q 464.207 67.99 462.851 69.3 A 4.693 4.693 0 0 1 460.891 70.413 Q 460.166 70.628 459.296 70.682 A 9.63 9.63 0 0 1 458.701 70.7 A 8.639 8.639 0 0 1 456.913 70.53 Q 455.878 70.31 455.144 69.808 A 3.887 3.887 0 0 1 453.601 67.6 Q 450.501 70.7 446.301 70.7 A 8.871 8.871 0 0 1 443.005 70.109 A 8.055 8.055 0 0 1 439.601 67.5 A 11.1 11.1 0 0 1 437.668 63.547 Q 437.243 61.992 437.136 60.156 A 21.698 21.698 0 0 1 437.101 58.9 A 15.352 15.352 0 0 1 438.101 53.234 Q 439.563 49.52 443.16 47.044 A 17.837 17.837 0 0 1 444.001 46.5 L 453.101 41.1 L 453.101 30.3 A 6.463 6.463 0 0 0 452.915 28.676 Q 452.244 26.1 449.151 26.1 A 4.716 4.716 0 0 0 447.469 26.376 Q 445.201 27.238 445.201 30.8 L 445.201 34.1 L 445.501 38.8 Q 444.201 39.1 442.851 39.1 Q 441.501 39.1 440.301 38.7 Q 439.16 38.415 438.562 37.882 A 1.9 1.9 0 0 1 437.901 36.4 L 437.901 28.2 A 8.104 8.104 0 0 1 438.42 25.239 Q 439.18 23.286 441.051 21.95 Q 443.801 19.986 448.113 19.736 A 22.304 22.304 0 0 1 449.401 19.7 A 18.445 18.445 0 0 1 453.627 20.141 Q 460.601 21.788 460.601 29.6 Z M 191.601 20.7 L 191.601 7.7 A 21.494 21.494 0 0 0 190.912 2.374 A 24.428 24.428 0 0 0 190.701 1.6 Q 193.701 0 197.101 0 A 3.919 3.919 0 0 1 197.824 0.061 Q 199.028 0.288 199.096 1.367 A 2.103 2.103 0 0 1 199.101 1.5 L 199.101 61.4 A 9.31 9.31 0 0 0 199.154 62.431 Q 199.3 63.739 199.851 64.4 A 2.047 2.047 0 0 0 200.603 64.949 Q 201.388 65.3 202.701 65.3 A 8.6 8.6 0 0 1 202.707 65.631 Q 202.707 67.99 201.351 69.3 A 4.693 4.693 0 0 1 199.391 70.413 Q 198.666 70.628 197.796 70.682 A 9.63 9.63 0 0 1 197.201 70.7 Q 194.621 70.7 193.248 69.411 A 4.494 4.494 0 0 1 192.101 67.6 A 11.387 11.387 0 0 1 189.45 69.607 A 9.05 9.05 0 0 1 185.101 70.7 A 9.317 9.317 0 0 1 182.128 70.246 A 7.749 7.749 0 0 1 178.801 68.05 A 8.635 8.635 0 0 1 176.964 64.719 Q 176.401 62.874 176.401 60.5 L 176.401 31.3 A 12.942 12.942 0 0 1 176.792 28.023 A 9.023 9.023 0 0 1 179.501 23.5 Q 182.485 20.805 187.508 20.704 A 19.604 19.604 0 0 1 187.901 20.7 L 191.601 20.7 Z M 264.801 60.8 L 264.801 29.5 A 11.801 11.801 0 0 1 265.478 25.328 Q 267.429 20.147 275.001 19.736 A 24.864 24.864 0 0 1 276.351 19.7 A 17.511 17.511 0 0 1 280.851 20.227 Q 286.599 21.759 287.66 27.757 A 16.918 16.918 0 0 1 287.901 30.7 A 21.125 21.125 0 0 1 287.178 36.297 A 18.791 18.791 0 0 1 286.301 38.8 A 14.965 14.965 0 0 1 284.671 41.693 A 11.232 11.232 0 0 1 281.901 44.4 L 272.301 51 L 272.301 60.1 A 6.463 6.463 0 0 0 272.486 61.724 Q 273.157 64.3 276.251 64.3 A 4.716 4.716 0 0 0 277.932 64.024 Q 280.201 63.162 280.201 59.6 L 280.201 57.3 L 279.901 52.6 Q 281.201 52.3 282.551 52.3 Q 283.901 52.3 285.101 52.7 Q 286.241 52.985 286.839 53.519 A 1.9 1.9 0 0 1 287.501 55 L 287.501 62.2 A 8.104 8.104 0 0 1 286.981 65.161 Q 286.221 67.114 284.351 68.45 Q 281.6 70.415 277.288 70.664 A 22.304 22.304 0 0 1 276.001 70.7 A 18.445 18.445 0 0 1 271.774 70.26 Q 264.801 68.612 264.801 60.8 Z M 157.101 31.1 L 157.101 61.5 A 54.49 54.49 0 0 0 157.195 64.809 Q 157.358 67.475 157.801 69.5 A 30.735 30.735 0 0 1 153.855 70.016 A 37.705 37.705 0 0 1 151.301 70.1 A 2.805 2.805 0 0 1 150.659 70.033 Q 149.601 69.784 149.601 68.6 L 149.601 29 A 9.31 9.31 0 0 0 149.548 27.969 Q 149.401 26.661 148.851 26 A 2.047 2.047 0 0 0 148.098 25.452 Q 147.313 25.1 146.001 25.1 A 8.6 8.6 0 0 1 145.994 24.77 Q 145.994 22.41 147.351 21.1 A 4.693 4.693 0 0 1 149.31 19.988 Q 150.035 19.772 150.905 19.718 A 9.63 9.63 0 0 1 151.501 19.7 Q 155.501 19.7 156.501 23.7 A 9.021 9.021 0 0 1 158.671 21.263 Q 160.565 19.822 163.156 19.71 A 10.238 10.238 0 0 1 163.601 19.7 A 12.297 12.297 0 0 1 166.796 20.078 Q 171.801 21.428 171.801 27.6 L 171.801 37.6 A 1.962 1.962 0 0 1 170.828 39.319 Q 170.463 39.557 169.963 39.733 A 6.34 6.34 0 0 1 169.401 39.9 Q 168.201 40.3 166.851 40.3 Q 165.501 40.3 164.201 40 A 32.577 32.577 0 0 0 164.458 37.133 A 38.948 38.948 0 0 0 164.501 35.3 L 164.501 30.2 A 5.26 5.26 0 0 0 164.362 28.935 Q 163.951 27.283 162.321 26.972 A 4.388 4.388 0 0 0 161.501 26.9 A 3.075 3.075 0 0 0 159.794 27.43 Q 159.363 27.712 158.955 28.142 A 5.989 5.989 0 0 0 158.901 28.2 Q 157.701 29.5 157.101 31.1 Z M 358.301 31.1 L 358.301 61.5 A 54.49 54.49 0 0 0 358.395 64.809 Q 358.558 67.475 359.001 69.5 A 30.735 30.735 0 0 1 355.055 70.016 A 37.705 37.705 0 0 1 352.501 70.1 A 2.805 2.805 0 0 1 351.859 70.033 Q 350.801 69.784 350.801 68.6 L 350.801 29 A 9.31 9.31 0 0 0 350.748 27.969 Q 350.601 26.661 350.051 26 A 2.047 2.047 0 0 0 349.298 25.452 Q 348.513 25.1 347.201 25.1 A 8.6 8.6 0 0 1 347.194 24.77 Q 347.194 22.41 348.551 21.1 A 4.693 4.693 0 0 1 350.51 19.988 Q 351.235 19.772 352.105 19.718 A 9.63 9.63 0 0 1 352.701 19.7 Q 356.701 19.7 357.701 23.7 A 9.021 9.021 0 0 1 359.871 21.263 Q 361.765 19.822 364.356 19.71 A 10.238 10.238 0 0 1 364.801 19.7 A 12.297 12.297 0 0 1 367.996 20.078 Q 373.001 21.428 373.001 27.6 L 373.001 37.6 A 1.962 1.962 0 0 1 372.028 39.319 Q 371.663 39.557 371.163 39.733 A 6.34 6.34 0 0 1 370.601 39.9 Q 369.401 40.3 368.051 40.3 Q 366.701 40.3 365.401 40 A 32.577 32.577 0 0 0 365.658 37.133 A 38.948 38.948 0 0 0 365.701 35.3 L 365.701 30.2 A 5.26 5.26 0 0 0 365.562 28.935 Q 365.151 27.283 363.521 26.972 A 4.388 4.388 0 0 0 362.701 26.9 A 3.075 3.075 0 0 0 360.994 27.43 Q 360.563 27.712 360.155 28.142 A 5.989 5.989 0 0 0 360.101 28.2 Q 358.901 29.5 358.301 31.1 Z M 249.701 63.4 L 249.701 7.7 Q 249.701 5.4 248.801 1.6 Q 251.801 0 255.201 0 A 3.919 3.919 0 0 1 255.924 0.061 Q 257.128 0.288 257.196 1.367 A 2.103 2.103 0 0 1 257.201 1.5 L 257.201 61.4 A 9.31 9.31 0 0 0 257.254 62.431 Q 257.4 63.739 257.951 64.4 A 2.047 2.047 0 0 0 258.703 64.949 Q 259.488 65.3 260.801 65.3 A 8.6 8.6 0 0 1 260.807 65.631 Q 260.807 67.99 259.451 69.3 Q 258.222 70.487 256.024 70.668 A 10.033 10.033 0 0 1 255.201 70.7 A 7.287 7.287 0 0 1 253.592 70.534 Q 252.559 70.3 251.806 69.736 A 4.106 4.106 0 0 1 251.051 69 Q 249.829 67.462 249.713 64.123 A 20.774 20.774 0 0 1 249.701 63.4 Z M 31.001 60.5 L 31.001 30.3 A 12.942 12.942 0 0 1 31.392 27.023 A 9.023 9.023 0 0 1 34.101 22.5 Q 37.085 19.805 42.108 19.704 A 19.604 19.604 0 0 1 42.501 19.7 A 17.438 17.438 0 0 1 45.726 19.98 Q 47.58 20.329 49.04 21.115 A 9.075 9.075 0 0 1 50.751 22.3 Q 53.617 24.827 53.698 29.62 A 16.608 16.608 0 0 1 53.701 29.9 L 53.701 60.1 A 12.727 12.727 0 0 1 53.296 63.402 A 8.994 8.994 0 0 1 50.551 67.9 A 10.68 10.68 0 0 1 45.913 70.273 Q 44.28 70.673 42.358 70.698 A 19.771 19.771 0 0 1 42.101 70.7 A 17.351 17.351 0 0 1 38.881 70.42 Q 37.057 70.075 35.625 69.306 A 8.843 8.843 0 0 1 33.901 68.1 Q 31.001 65.5 31.001 60.5 Z M 119.301 60.5 L 119.301 30.3 A 12.942 12.942 0 0 1 119.692 27.023 A 9.023 9.023 0 0 1 122.401 22.5 Q 125.385 19.805 130.408 19.704 A 19.604 19.604 0 0 1 130.801 19.7 A 17.438 17.438 0 0 1 134.026 19.98 Q 135.88 20.329 137.34 21.115 A 9.075 9.075 0 0 1 139.051 22.3 Q 141.917 24.827 141.998 29.62 A 16.608 16.608 0 0 1 142.001 29.9 L 142.001 60.1 A 12.727 12.727 0 0 1 141.596 63.402 A 8.994 8.994 0 0 1 138.851 67.9 A 10.68 10.68 0 0 1 134.213 70.273 Q 132.58 70.673 130.658 70.698 A 19.771 19.771 0 0 1 130.401 70.7 A 17.351 17.351 0 0 1 127.181 70.42 Q 125.357 70.075 123.925 69.306 A 8.843 8.843 0 0 1 122.201 68.1 Q 119.301 65.5 119.301 60.5 Z M 376.301 20.7 L 386.301 20.7 L 386.301 61.4 A 9.31 9.31 0 0 0 386.354 62.431 Q 386.5 63.739 387.051 64.4 A 2.047 2.047 0 0 0 387.803 64.949 Q 388.588 65.3 389.901 65.3 A 8.6 8.6 0 0 1 389.907 65.631 Q 389.907 67.99 388.551 69.3 Q 387.322 70.487 385.124 70.668 A 10.033 10.033 0 0 1 384.301 70.7 A 7.287 7.287 0 0 1 382.692 70.534 Q 381.659 70.3 380.906 69.736 A 4.106 4.106 0 0 1 380.151 69 Q 378.929 67.462 378.813 64.123 A 20.774 20.774 0 0 1 378.801 63.4 L 378.801 26.7 L 375.701 27.2 A 24.072 24.072 0 0 1 375.274 25.342 Q 375.103 24.421 375.039 23.6 A 12.218 12.218 0 0 1 375.001 22.65 Q 375.001 20.7 376.301 20.7 Z M 420.601 20.7 L 430.601 20.7 L 430.601 61.4 A 9.31 9.31 0 0 0 430.654 62.431 Q 430.8 63.739 431.351 64.4 A 2.047 2.047 0 0 0 432.103 64.949 Q 432.888 65.3 434.201 65.3 A 8.6 8.6 0 0 1 434.207 65.631 Q 434.207 67.99 432.851 69.3 Q 431.622 70.487 429.424 70.668 A 10.033 10.033 0 0 1 428.601 70.7 A 7.287 7.287 0 0 1 426.992 70.534 Q 425.959 70.3 425.206 69.736 A 4.106 4.106 0 0 1 424.451 69 Q 423.229 67.462 423.113 64.123 A 20.774 20.774 0 0 1 423.101 63.4 L 423.101 26.7 L 420.001 27.2 A 24.072 24.072 0 0 1 419.574 25.342 Q 419.403 24.421 419.339 23.6 A 12.218 12.218 0 0 1 419.301 22.65 Q 419.301 20.7 420.601 20.7 Z M 38.501 29.9 L 38.501 60.5 A 4.327 4.327 0 0 0 38.757 62.012 A 3.856 3.856 0 0 0 39.601 63.35 A 3.633 3.633 0 0 0 42.248 64.499 A 4.663 4.663 0 0 0 42.351 64.5 A 3.882 3.882 0 0 0 43.863 64.213 A 3.656 3.656 0 0 0 45.101 63.35 Q 46.201 62.2 46.201 60.5 L 46.201 29.9 A 4.327 4.327 0 0 0 45.945 28.388 A 3.856 3.856 0 0 0 45.101 27.05 A 3.633 3.633 0 0 0 42.453 25.901 A 4.663 4.663 0 0 0 42.351 25.9 Q 40.701 25.9 39.601 27.05 Q 38.501 28.2 38.501 29.9 Z M 126.801 29.9 L 126.801 60.5 A 4.327 4.327 0 0 0 127.057 62.012 A 3.856 3.856 0 0 0 127.901 63.35 A 3.633 3.633 0 0 0 130.548 64.499 A 4.663 4.663 0 0 0 130.651 64.5 A 3.882 3.882 0 0 0 132.163 64.213 A 3.656 3.656 0 0 0 133.401 63.35 Q 134.501 62.2 134.501 60.5 L 134.501 29.9 A 4.327 4.327 0 0 0 134.245 28.388 A 3.856 3.856 0 0 0 133.401 27.05 A 3.633 3.633 0 0 0 130.753 25.901 A 4.663 4.663 0 0 0 130.651 25.9 Q 129.001 25.9 127.901 27.05 Q 126.801 28.2 126.801 29.9 Z M 191.601 60.3 L 191.601 27.1 L 187.701 27.1 A 4.474 4.474 0 0 0 186.449 27.267 A 3.442 3.442 0 0 0 184.951 28.15 A 3.534 3.534 0 0 0 183.946 30.224 A 4.913 4.913 0 0 0 183.901 30.9 L 183.901 60.4 A 6.171 6.171 0 0 0 184.025 61.699 Q 184.435 63.595 186.198 63.858 A 4.088 4.088 0 0 0 186.801 63.9 Q 188.301 63.9 189.651 62.75 Q 190.977 61.62 191.579 60.346 A 5.533 5.533 0 0 0 191.601 60.3 Z M 272.301 29.2 L 272.301 43.5 L 277.101 39.9 Q 279.858 37.855 280.163 31.933 A 29.83 29.83 0 0 0 280.201 30.4 A 5.375 5.375 0 0 0 280.046 29.072 A 3.747 3.747 0 0 0 279.001 27.25 A 4.099 4.099 0 0 0 276.306 26.109 A 5.403 5.403 0 0 0 276.001 26.1 Q 272.733 26.1 272.351 28.518 A 4.375 4.375 0 0 0 272.301 29.2 Z M 453.101 48.2 L 448.301 51.4 A 7.035 7.035 0 0 0 445.393 55.55 Q 445.05 56.797 445.007 58.312 A 15.491 15.491 0 0 0 445.001 58.75 Q 445.001 62.168 446.388 63.318 A 2.67 2.67 0 0 0 448.151 63.9 A 4.819 4.819 0 0 0 451.947 62.081 Q 452.541 61.387 453.035 60.429 A 11.296 11.296 0 0 0 453.101 60.3 L 453.101 48.2 Z M 380.52 11.198 A 4.54 4.54 0 0 0 382.501 11.6 Q 385.931 11.6 386.625 7.972 A 11.09 11.09 0 0 0 386.801 5.9 Q 386.801 1.714 384.481 0.602 A 4.54 4.54 0 0 0 382.501 0.2 Q 379.07 0.2 378.376 3.829 A 11.09 11.09 0 0 0 378.201 5.9 Q 378.201 10.086 380.52 11.198 Z M 424.82 11.198 A 4.54 4.54 0 0 0 426.801 11.6 Q 430.231 11.6 430.925 7.972 A 11.09 11.09 0 0 0 431.101 5.9 Q 431.101 1.714 428.781 0.602 A 4.54 4.54 0 0 0 426.801 0.2 Q 423.37 0.2 422.676 3.829 A 11.09 11.09 0 0 0 422.501 5.9 Q 422.501 10.086 424.82 11.198 Z" vector-effect="non-scaling-stroke"/></g></svg>