<svg width="433.601" height="85.9" viewBox="0 0 433.601 85.9" xmlns="http://www.w3.org/2000/svg"><g id="svgGroup" stroke-linecap="round" fill-rule="evenodd" font-size="9pt" stroke="#000" stroke-width="0.25mm" fill="#000" style="stroke:#000;stroke-width:0.25mm;fill:#000"><path d="M 104.701 58.7 L 104.701 28.9 A 56.837 56.837 0 0 0 104.603 25.467 Q 104.439 22.769 104.001 20.7 A 45.273 45.273 0 0 1 107.843 20.361 A 56.306 56.306 0 0 1 110.501 20.3 A 2.805 2.805 0 0 1 111.142 20.367 Q 112.201 20.617 112.201 21.8 L 112.201 76.8 A 10.187 10.187 0 0 1 111.833 79.619 A 7.293 7.293 0 0 1 109.051 83.6 A 11.12 11.12 0 0 1 105.429 85.307 Q 103.893 85.733 102.071 85.853 A 22.4 22.4 0 0 1 100.601 85.9 A 22.673 22.673 0 0 1 97.522 85.705 Q 95.958 85.49 94.678 85.039 A 9.618 9.618 0 0 1 92.401 83.9 A 6.865 6.865 0 0 1 90.47 81.946 Q 89.576 80.543 89.507 78.713 A 8.21 8.21 0 0 1 89.501 78.4 L 89.501 74.7 A 2.042 2.042 0 0 1 90.415 72.983 Q 90.769 72.724 91.261 72.522 A 6.423 6.423 0 0 1 91.901 72.3 A 10.201 10.201 0 0 1 93.908 72.013 A 11.754 11.754 0 0 1 94.451 72 Q 95.801 72 97.101 72.3 A 45.064 45.064 0 0 0 96.918 74.016 Q 96.845 74.865 96.817 75.623 A 24.237 24.237 0 0 0 96.801 76.5 L 96.801 77 Q 96.801 79.387 100.402 79.495 A 11.658 11.658 0 0 0 100.751 79.5 Q 104.701 79.5 104.701 76 L 104.701 66.1 A 8.434 8.434 0 0 1 99.45 68.539 A 11.489 11.489 0 0 1 98.251 68.6 A 9.911 9.911 0 0 1 95.349 68.195 A 7.772 7.772 0 0 1 91.901 66.05 Q 89.894 63.919 89.565 60.145 A 17.787 17.787 0 0 1 89.501 58.6 L 89.501 29 A 9.31 9.31 0 0 0 89.448 27.969 Q 89.301 26.661 88.751 26 A 2.047 2.047 0 0 0 87.998 25.452 Q 87.213 25.1 85.901 25.1 Q 85.858 24.04 86.112 23.169 A 4.403 4.403 0 0 1 87.351 21.15 Q 88.762 19.83 91.211 19.712 A 10.189 10.189 0 0 1 91.701 19.7 A 7.705 7.705 0 0 1 93.208 19.837 Q 94.063 20.008 94.713 20.392 A 3.678 3.678 0 0 1 95.751 21.3 A 4.718 4.718 0 0 1 96.456 22.63 Q 96.919 23.929 96.988 25.891 A 20.122 20.122 0 0 1 97.001 26.6 L 97.001 58.5 Q 97.001 61.536 99.201 61.779 A 3.641 3.641 0 0 0 99.601 61.8 Q 100.921 61.8 102.331 60.955 A 8.183 8.183 0 0 0 102.501 60.85 Q 104.001 59.9 104.701 58.7 Z M 143.101 35.9 L 144.601 35.9 A 41.63 41.63 0 0 0 146.483 35.861 Q 148.186 35.783 149.343 35.554 A 8.943 8.943 0 0 0 150.001 35.4 A 20.459 20.459 0 0 1 150.762 39.714 A 18.481 18.481 0 0 1 150.801 40.9 A 2.661 2.661 0 0 1 150.738 41.504 Q 150.505 42.5 149.401 42.5 L 143.501 42.5 Q 141.401 42.5 140.151 43.6 A 3.619 3.619 0 0 0 138.908 46.223 A 4.958 4.958 0 0 0 138.901 46.5 L 138.901 60.1 A 4.62 4.62 0 0 0 139.062 61.356 A 3.347 3.347 0 0 0 140.151 63.05 A 4.284 4.284 0 0 0 141.866 63.91 Q 142.502 64.073 143.252 64.096 A 8.101 8.101 0 0 0 143.501 64.1 Q 145.436 64.1 146.692 63.208 A 4.229 4.229 0 0 0 146.901 63.05 A 3.421 3.421 0 0 0 148.162 60.728 A 4.969 4.969 0 0 0 148.201 60.1 L 148.201 57.6 L 147.901 52.5 Q 149.301 52.2 150.701 52.2 Q 152.101 52.2 153.501 52.6 A 6.334 6.334 0 0 1 154.514 52.959 Q 155.031 53.199 155.38 53.51 A 2.046 2.046 0 0 1 156.101 55.1 L 156.101 61.5 A 7.81 7.81 0 0 1 153.497 67.488 A 10.209 10.209 0 0 1 152.701 68.15 Q 149.301 70.7 143.551 70.7 A 19.149 19.149 0 0 1 139.798 70.354 Q 136.605 69.716 134.401 67.9 A 9.134 9.134 0 0 1 131.101 61.754 A 13.181 13.181 0 0 1 131.001 60.1 L 131.001 46.1 A 11.137 11.137 0 0 1 131.343 43.255 A 7.658 7.658 0 0 1 133.901 39.2 Q 131.001 36.8 131.001 32.3 L 131.001 14.3 A 11.788 11.788 0 0 1 131.459 10.925 A 8.908 8.908 0 0 1 134.401 6.5 A 11.747 11.747 0 0 1 139.047 4.208 Q 140.787 3.766 142.837 3.709 A 22.069 22.069 0 0 1 143.451 3.7 Q 147.71 3.7 150.634 5.15 A 10.523 10.523 0 0 1 152.401 6.25 Q 155.643 8.756 155.7 12.758 A 10.088 10.088 0 0 1 155.701 12.9 L 155.701 21.3 Q 155.701 22.831 153.82 23.566 A 6.916 6.916 0 0 1 153.101 23.8 Q 151.701 24.2 150.301 24.2 Q 148.901 24.2 147.501 23.9 A 39.09 39.09 0 0 0 147.771 20.458 A 46.134 46.134 0 0 0 147.801 18.8 L 147.801 14.3 A 5.187 5.187 0 0 0 147.56 12.648 Q 146.786 10.344 143.525 10.301 A 9.474 9.474 0 0 0 143.401 10.3 A 6.772 6.772 0 0 0 142.063 10.424 Q 140.888 10.661 140.101 11.35 Q 138.901 12.4 138.901 14.3 L 138.901 31.9 A 4.571 4.571 0 0 0 139.083 33.223 A 3.573 3.573 0 0 0 140.051 34.8 A 3.879 3.879 0 0 0 142.039 35.803 A 5.554 5.554 0 0 0 143.101 35.9 Z M 0.001 60.5 L 0.001 14.3 A 11.788 11.788 0 0 1 0.459 10.925 A 8.908 8.908 0 0 1 3.401 6.5 A 11.64 11.64 0 0 1 7.822 4.275 Q 9.945 3.7 12.551 3.7 A 21.068 21.068 0 0 1 16.226 4.001 Q 19.469 4.577 21.701 6.25 A 8.832 8.832 0 0 1 23.933 8.628 A 7.9 7.9 0 0 1 25.101 12.9 L 25.101 25.3 Q 25.101 26.831 23.22 27.566 A 6.916 6.916 0 0 1 22.501 27.8 Q 21.101 28.2 19.701 28.2 Q 18.301 28.2 16.901 27.9 A 39.09 39.09 0 0 0 17.171 24.458 A 46.134 46.134 0 0 0 17.201 22.8 L 17.201 14.3 A 4.453 4.453 0 0 0 17.033 13.044 A 3.336 3.336 0 0 0 15.901 11.35 Q 14.636 10.328 12.613 10.301 A 8.269 8.269 0 0 0 12.501 10.3 A 6.81 6.81 0 0 0 11.108 10.434 Q 9.954 10.675 9.151 11.35 A 3.423 3.423 0 0 0 7.96 13.51 A 5.017 5.017 0 0 0 7.901 14.3 L 7.901 60.1 A 4.197 4.197 0 0 0 8.119 61.483 A 3.542 3.542 0 0 0 9.151 63 Q 10.368 64.071 12.392 64.099 A 7.892 7.892 0 0 0 12.501 64.1 Q 14.436 64.1 15.692 63.208 A 4.229 4.229 0 0 0 15.901 63.05 A 3.421 3.421 0 0 0 17.162 60.728 A 4.969 4.969 0 0 0 17.201 60.1 L 17.201 57.9 L 16.901 52.8 Q 18.301 52.5 19.701 52.5 Q 21.101 52.5 22.501 52.9 A 6.334 6.334 0 0 1 23.514 53.259 Q 24.031 53.499 24.38 53.81 A 2.046 2.046 0 0 1 25.101 55.4 L 25.101 60.9 A 8.398 8.398 0 0 1 22.285 67.271 A 11.587 11.587 0 0 1 21.551 67.9 A 12.552 12.552 0 0 1 16.615 70.229 Q 14.638 70.7 12.301 70.7 A 20.204 20.204 0 0 1 8.684 70.396 Q 5.473 69.811 3.301 68.1 A 8.41 8.41 0 0 1 0.207 62.85 A 12.748 12.748 0 0 1 0.001 60.5 Z M 388.901 29.7 L 388.901 61.5 A 56.837 56.837 0 0 0 388.998 64.933 Q 389.162 67.631 389.601 69.7 A 45.273 45.273 0 0 1 385.759 70.039 A 56.306 56.306 0 0 1 383.101 70.1 A 2.805 2.805 0 0 1 382.459 70.033 Q 381.401 69.784 381.401 68.6 L 381.401 29 A 9.31 9.31 0 0 0 381.348 27.969 Q 381.201 26.661 380.651 26 A 2.047 2.047 0 0 0 379.898 25.452 Q 379.113 25.1 377.801 25.1 A 8.6 8.6 0 0 1 377.794 24.77 Q 377.794 22.41 379.151 21.1 Q 380.601 19.7 383.801 19.7 A 5.098 5.098 0 0 1 385.908 20.118 Q 387.515 20.838 388.401 22.8 A 12.661 12.661 0 0 1 391.063 20.851 A 9.352 9.352 0 0 1 395.551 19.7 A 9.608 9.608 0 0 1 398.406 20.105 A 7.611 7.611 0 0 1 401.751 22.2 Q 403.832 24.415 404.07 28.276 A 16.66 16.66 0 0 1 404.101 29.3 L 404.101 61.4 A 9.31 9.31 0 0 0 404.154 62.431 Q 404.3 63.739 404.851 64.4 A 2.047 2.047 0 0 0 405.603 64.949 Q 406.388 65.3 407.701 65.3 A 8.6 8.6 0 0 1 407.707 65.631 Q 407.707 67.99 406.351 69.3 Q 405.122 70.487 402.924 70.668 A 10.033 10.033 0 0 1 402.101 70.7 A 7.287 7.287 0 0 1 400.492 70.534 Q 399.459 70.3 398.706 69.736 A 4.106 4.106 0 0 1 397.951 69 Q 396.729 67.462 396.613 64.123 A 20.774 20.774 0 0 1 396.601 63.4 L 396.601 29.9 Q 396.601 27.268 394.438 26.735 A 5.184 5.184 0 0 0 393.201 26.6 A 4.226 4.226 0 0 0 389.746 28.326 A 7.404 7.404 0 0 0 388.901 29.7 Z M 235.201 61.3 L 235.201 26.7 L 232.101 27.2 A 24.072 24.072 0 0 1 231.674 25.342 Q 231.503 24.421 231.439 23.6 A 12.218 12.218 0 0 1 231.401 22.65 Q 231.401 20.7 232.701 20.7 L 235.401 20.7 L 236.801 11.3 A 2.365 2.365 0 0 1 238.382 9.429 Q 239.224 9.1 240.501 9.1 Q 241.501 9.1 242.701 9.3 L 242.701 20.7 L 251.401 20.7 L 256.601 20.2 A 32.029 32.029 0 0 1 256.924 22.205 Q 257.046 23.159 257.083 24.004 A 16.677 16.677 0 0 1 257.101 24.75 Q 257.101 26.7 255.801 26.7 L 242.701 26.7 L 242.701 60.1 Q 242.701 61.649 243.272 62.681 A 3.505 3.505 0 0 0 243.751 63.35 A 3.412 3.412 0 0 0 246.227 64.497 A 4.331 4.331 0 0 0 246.401 64.5 Q 250.101 64.5 250.101 59.6 L 250.101 52.3 L 249.801 47.6 Q 251.101 47.3 252.451 47.3 Q 253.801 47.3 255.001 47.7 Q 256.141 47.985 256.739 48.519 A 1.9 1.9 0 0 1 257.401 50 L 257.401 62 A 8.759 8.759 0 0 1 256.955 64.862 A 7.167 7.167 0 0 1 254.201 68.45 A 11.863 11.863 0 0 1 250.047 70.269 Q 248.445 70.646 246.587 70.693 A 21.16 21.16 0 0 1 246.051 70.7 A 15.585 15.585 0 0 1 242.751 70.371 Q 240.57 69.898 238.92 68.748 A 9.369 9.369 0 0 1 238.151 68.15 A 8.374 8.374 0 0 1 235.241 62.284 A 11.693 11.693 0 0 1 235.201 61.3 Z M 418.001 57.9 L 418.001 59.8 Q 418.001 63.629 420.933 64.2 A 5.853 5.853 0 0 0 422.051 64.3 A 4.74 4.74 0 0 0 423.799 64.003 Q 426.101 63.094 426.101 59.4 L 426.101 55.3 A 8.264 8.264 0 0 0 425.871 53.288 A 5.186 5.186 0 0 0 423.501 50 L 414.701 44.7 A 7.836 7.836 0 0 1 411.109 39.545 A 13.15 13.15 0 0 1 410.801 36.6 L 410.801 29.6 A 11.056 11.056 0 0 1 411.289 26.239 A 8.961 8.961 0 0 1 413.651 22.45 Q 416.033 20.151 420.302 19.774 A 19.881 19.881 0 0 1 422.051 19.7 A 21.442 21.442 0 0 1 425.224 19.919 Q 426.86 20.165 428.179 20.685 A 9.051 9.051 0 0 1 430.501 22 A 7.439 7.439 0 0 1 433.366 27.445 A 10.311 10.311 0 0 1 433.401 28.3 L 433.401 34.6 A 2.392 2.392 0 0 1 433.4 34.627 Q 433.382 36.305 431.001 36.9 Q 429.801 37.3 428.451 37.3 Q 427.101 37.3 425.801 37 A 32.577 32.577 0 0 0 426.058 34.133 A 38.948 38.948 0 0 0 426.101 32.3 L 426.101 30.8 A 8.536 8.536 0 0 0 425.944 29.085 Q 425.403 26.461 422.998 26.144 A 5.333 5.333 0 0 0 422.301 26.1 A 5.47 5.47 0 0 0 420.693 26.316 Q 418.927 26.859 418.464 28.772 A 6.521 6.521 0 0 0 418.301 30.3 L 418.301 34.9 A 8.596 8.596 0 0 0 418.454 36.586 Q 418.64 37.518 419.056 38.212 A 3.746 3.746 0 0 0 420.501 39.6 L 429.301 44.7 A 8.004 8.004 0 0 1 433.395 50.525 A 12.986 12.986 0 0 1 433.601 52.9 L 433.601 60.4 A 13.014 13.014 0 0 1 433.233 63.585 A 8.976 8.976 0 0 1 430.751 67.95 A 9.086 9.086 0 0 1 427.14 70.045 Q 425.728 70.495 424.017 70.636 A 19.71 19.71 0 0 1 422.401 70.7 A 22.403 22.403 0 0 1 419.197 70.485 Q 417.463 70.234 416.048 69.69 A 10.183 10.183 0 0 1 413.801 68.5 A 7.057 7.057 0 0 1 410.765 63.346 A 9.845 9.845 0 0 1 410.701 62.2 L 410.701 55.6 A 1.962 1.962 0 0 1 411.674 53.881 Q 412.038 53.643 412.539 53.467 A 6.34 6.34 0 0 1 413.101 53.3 Q 414.301 52.9 415.651 52.9 Q 417.001 52.9 418.301 53.2 A 32.577 32.577 0 0 0 418.043 56.067 A 38.948 38.948 0 0 0 418.001 57.9 Z M 205.701 59.5 L 205.701 29.5 A 11.755 11.755 0 0 1 206.381 25.328 Q 208.51 19.7 217.301 19.7 Q 221.005 19.7 223.549 20.914 A 9.14 9.14 0 0 1 225.301 22 A 7.371 7.371 0 0 1 228.166 27.366 A 9.828 9.828 0 0 1 228.201 28.2 L 228.201 36.4 A 1.962 1.962 0 0 1 227.228 38.119 Q 226.863 38.357 226.363 38.533 A 6.34 6.34 0 0 1 225.801 38.7 Q 224.601 39.1 223.251 39.1 Q 221.901 39.1 220.601 38.8 A 32.577 32.577 0 0 0 220.858 35.933 A 38.948 38.948 0 0 0 220.901 34.1 L 220.901 30.8 A 11.051 11.051 0 0 0 220.837 29.571 Q 220.69 28.261 220.202 27.481 A 2.739 2.739 0 0 0 220.001 27.2 A 2.646 2.646 0 0 0 218.918 26.429 Q 218.466 26.247 217.895 26.165 A 7.079 7.079 0 0 0 216.901 26.1 Q 213.633 26.1 213.251 28.518 A 4.375 4.375 0 0 0 213.201 29.2 L 213.201 58.3 Q 213.201 61.4 214.201 62.8 Q 215.091 64.046 217.05 64.183 A 7.178 7.178 0 0 0 217.551 64.2 A 7.597 7.597 0 0 0 221.061 63.321 A 9.784 9.784 0 0 0 222.101 62.7 A 11.562 11.562 0 0 0 223.293 61.777 Q 223.851 61.278 224.239 60.769 A 4.602 4.602 0 0 0 224.901 59.6 A 9.514 9.514 0 0 1 226.732 60.661 Q 227.781 61.452 228.323 62.447 A 4.84 4.84 0 0 1 228.901 64.8 A 2.149 2.149 0 0 1 228.193 66.436 A 2.801 2.801 0 0 1 228.001 66.6 Q 224.001 70.7 215.901 70.7 A 13.257 13.257 0 0 1 211.695 70.09 Q 205.701 68.086 205.701 59.5 Z M 306.301 59.5 L 306.301 29.5 A 11.755 11.755 0 0 1 306.981 25.328 Q 309.11 19.7 317.901 19.7 Q 321.605 19.7 324.149 20.914 A 9.14 9.14 0 0 1 325.901 22 A 7.371 7.371 0 0 1 328.766 27.366 A 9.828 9.828 0 0 1 328.801 28.2 L 328.801 36.4 A 1.962 1.962 0 0 1 327.828 38.119 Q 327.463 38.357 326.963 38.533 A 6.34 6.34 0 0 1 326.401 38.7 Q 325.201 39.1 323.851 39.1 Q 322.501 39.1 321.201 38.8 A 32.577 32.577 0 0 0 321.458 35.933 A 38.948 38.948 0 0 0 321.501 34.1 L 321.501 30.8 A 11.051 11.051 0 0 0 321.437 29.571 Q 321.29 28.261 320.802 27.481 A 2.739 2.739 0 0 0 320.601 27.2 A 2.646 2.646 0 0 0 319.518 26.429 Q 319.066 26.247 318.495 26.165 A 7.079 7.079 0 0 0 317.501 26.1 Q 314.233 26.1 313.851 28.518 A 4.375 4.375 0 0 0 313.801 29.2 L 313.801 58.3 Q 313.801 61.4 314.801 62.8 Q 315.691 64.046 317.65 64.183 A 7.178 7.178 0 0 0 318.151 64.2 A 7.597 7.597 0 0 0 321.661 63.321 A 9.784 9.784 0 0 0 322.701 62.7 A 11.562 11.562 0 0 0 323.893 61.777 Q 324.451 61.278 324.839 60.769 A 4.602 4.602 0 0 0 325.501 59.6 A 9.514 9.514 0 0 1 327.332 60.661 Q 328.381 61.452 328.923 62.447 A 4.84 4.84 0 0 1 329.501 64.8 A 2.149 2.149 0 0 1 328.793 66.436 A 2.801 2.801 0 0 1 328.601 66.6 Q 324.601 70.7 316.501 70.7 A 13.257 13.257 0 0 1 312.295 70.09 Q 306.301 68.086 306.301 59.5 Z M 53.401 29.6 L 53.401 61.4 A 9.31 9.31 0 0 0 53.454 62.431 Q 53.6 63.739 54.151 64.4 A 2.047 2.047 0 0 0 54.903 64.949 Q 55.688 65.3 57.001 65.3 A 8.6 8.6 0 0 1 57.007 65.631 Q 57.007 67.99 55.651 69.3 A 4.693 4.693 0 0 1 53.691 70.413 Q 52.966 70.628 52.096 70.682 A 9.63 9.63 0 0 1 51.501 70.7 A 8.639 8.639 0 0 1 49.713 70.53 Q 48.678 70.31 47.944 69.808 A 3.887 3.887 0 0 1 46.401 67.6 Q 43.301 70.7 39.101 70.7 A 8.871 8.871 0 0 1 35.805 70.109 A 8.055 8.055 0 0 1 32.401 67.5 A 11.1 11.1 0 0 1 30.468 63.547 Q 30.043 61.992 29.936 60.156 A 21.698 21.698 0 0 1 29.901 58.9 A 15.352 15.352 0 0 1 30.901 53.234 Q 32.363 49.52 35.96 47.044 A 17.837 17.837 0 0 1 36.801 46.5 L 45.901 41.1 L 45.901 30.3 A 6.463 6.463 0 0 0 45.715 28.676 Q 45.044 26.1 41.951 26.1 A 4.716 4.716 0 0 0 40.269 26.376 Q 38.001 27.238 38.001 30.8 L 38.001 34.1 L 38.301 38.8 Q 37.001 39.1 35.651 39.1 Q 34.301 39.1 33.101 38.7 Q 31.96 38.415 31.362 37.882 A 1.9 1.9 0 0 1 30.701 36.4 L 30.701 28.2 A 8.104 8.104 0 0 1 31.22 25.239 Q 31.98 23.286 33.851 21.95 Q 36.601 19.986 40.913 19.736 A 22.304 22.304 0 0 1 42.201 19.7 A 18.445 18.445 0 0 1 46.427 20.141 Q 53.401 21.788 53.401 29.6 Z M 373.001 29.6 L 373.001 61.4 A 9.31 9.31 0 0 0 373.054 62.431 Q 373.2 63.739 373.751 64.4 A 2.047 2.047 0 0 0 374.503 64.949 Q 375.288 65.3 376.601 65.3 A 8.6 8.6 0 0 1 376.607 65.631 Q 376.607 67.99 375.251 69.3 A 4.693 4.693 0 0 1 373.291 70.413 Q 372.566 70.628 371.696 70.682 A 9.63 9.63 0 0 1 371.101 70.7 A 8.639 8.639 0 0 1 369.313 70.53 Q 368.278 70.31 367.544 69.808 A 3.887 3.887 0 0 1 366.001 67.6 Q 362.901 70.7 358.701 70.7 A 8.871 8.871 0 0 1 355.405 70.109 A 8.055 8.055 0 0 1 352.001 67.5 A 11.1 11.1 0 0 1 350.068 63.547 Q 349.643 61.992 349.536 60.156 A 21.698 21.698 0 0 1 349.501 58.9 A 15.352 15.352 0 0 1 350.501 53.234 Q 351.963 49.52 355.56 47.044 A 17.837 17.837 0 0 1 356.401 46.5 L 365.501 41.1 L 365.501 30.3 A 6.463 6.463 0 0 0 365.315 28.676 Q 364.644 26.1 361.551 26.1 A 4.716 4.716 0 0 0 359.869 26.376 Q 357.601 27.238 357.601 30.8 L 357.601 34.1 L 357.901 38.8 Q 356.601 39.1 355.251 39.1 Q 353.901 39.1 352.701 38.7 Q 351.56 38.415 350.962 37.882 A 1.9 1.9 0 0 1 350.301 36.4 L 350.301 28.2 A 8.104 8.104 0 0 1 350.82 25.239 Q 351.58 23.286 353.451 21.95 Q 356.201 19.986 360.513 19.736 A 22.304 22.304 0 0 1 361.801 19.7 A 18.445 18.445 0 0 1 366.027 20.141 Q 373.001 21.788 373.001 29.6 Z M 177.201 60.8 L 177.201 29.5 A 11.801 11.801 0 0 1 177.878 25.328 Q 179.829 20.147 187.401 19.736 A 24.864 24.864 0 0 1 188.751 19.7 A 17.511 17.511 0 0 1 193.251 20.227 Q 198.999 21.759 200.06 27.757 A 16.918 16.918 0 0 1 200.301 30.7 A 21.125 21.125 0 0 1 199.578 36.297 A 18.791 18.791 0 0 1 198.701 38.8 A 14.965 14.965 0 0 1 197.071 41.693 A 11.232 11.232 0 0 1 194.301 44.4 L 184.701 51 L 184.701 60.1 A 6.463 6.463 0 0 0 184.886 61.724 Q 185.557 64.3 188.651 64.3 A 4.716 4.716 0 0 0 190.332 64.024 Q 192.601 63.162 192.601 59.6 L 192.601 57.3 L 192.301 52.6 Q 193.601 52.3 194.951 52.3 Q 196.301 52.3 197.501 52.7 Q 198.641 52.985 199.239 53.519 A 1.9 1.9 0 0 1 199.901 55 L 199.901 62.2 A 8.104 8.104 0 0 1 199.381 65.161 Q 198.621 67.114 196.751 68.45 Q 194 70.415 189.688 70.664 A 22.304 22.304 0 0 1 188.401 70.7 A 18.445 18.445 0 0 1 184.174 70.26 Q 177.201 68.612 177.201 60.8 Z M 69.301 31.1 L 69.301 61.5 A 54.49 54.49 0 0 0 69.395 64.809 Q 69.558 67.475 70.001 69.5 A 30.735 30.735 0 0 1 66.055 70.016 A 37.705 37.705 0 0 1 63.501 70.1 A 2.805 2.805 0 0 1 62.859 70.033 Q 61.801 69.784 61.801 68.6 L 61.801 29 A 9.31 9.31 0 0 0 61.748 27.969 Q 61.601 26.661 61.051 26 A 2.047 2.047 0 0 0 60.298 25.452 Q 59.513 25.1 58.201 25.1 A 8.6 8.6 0 0 1 58.194 24.77 Q 58.194 22.41 59.551 21.1 A 4.693 4.693 0 0 1 61.51 19.988 Q 62.235 19.772 63.105 19.718 A 9.63 9.63 0 0 1 63.701 19.7 Q 67.701 19.7 68.701 23.7 A 9.021 9.021 0 0 1 70.871 21.263 Q 72.765 19.822 75.356 19.71 A 10.238 10.238 0 0 1 75.801 19.7 A 12.297 12.297 0 0 1 78.996 20.078 Q 84.001 21.428 84.001 27.6 L 84.001 37.6 A 1.962 1.962 0 0 1 83.028 39.319 Q 82.663 39.557 82.163 39.733 A 6.34 6.34 0 0 1 81.601 39.9 Q 80.401 40.3 79.051 40.3 Q 77.701 40.3 76.401 40 A 32.577 32.577 0 0 0 76.658 37.133 A 38.948 38.948 0 0 0 76.701 35.3 L 76.701 30.2 A 5.26 5.26 0 0 0 76.562 28.935 Q 76.151 27.283 74.521 26.972 A 4.388 4.388 0 0 0 73.701 26.9 A 3.075 3.075 0 0 0 71.994 27.43 Q 71.563 27.712 71.155 28.142 A 5.989 5.989 0 0 0 71.101 28.2 Q 69.901 29.5 69.301 31.1 Z M 270.701 31.1 L 270.701 61.5 A 54.49 54.49 0 0 0 270.795 64.809 Q 270.958 67.475 271.401 69.5 A 30.735 30.735 0 0 1 267.455 70.016 A 37.705 37.705 0 0 1 264.901 70.1 A 2.805 2.805 0 0 1 264.259 70.033 Q 263.201 69.784 263.201 68.6 L 263.201 29 A 9.31 9.31 0 0 0 263.148 27.969 Q 263.001 26.661 262.451 26 A 2.047 2.047 0 0 0 261.698 25.452 Q 260.913 25.1 259.601 25.1 A 8.6 8.6 0 0 1 259.594 24.77 Q 259.594 22.41 260.951 21.1 A 4.693 4.693 0 0 1 262.91 19.988 Q 263.635 19.772 264.505 19.718 A 9.63 9.63 0 0 1 265.101 19.7 Q 269.101 19.7 270.101 23.7 A 9.021 9.021 0 0 1 272.271 21.263 Q 274.165 19.822 276.756 19.71 A 10.238 10.238 0 0 1 277.201 19.7 A 12.297 12.297 0 0 1 280.396 20.078 Q 285.401 21.428 285.401 27.6 L 285.401 37.6 A 1.962 1.962 0 0 1 284.428 39.319 Q 284.063 39.557 283.563 39.733 A 6.34 6.34 0 0 1 283.001 39.9 Q 281.801 40.3 280.451 40.3 Q 279.101 40.3 277.801 40 A 32.577 32.577 0 0 0 278.058 37.133 A 38.948 38.948 0 0 0 278.101 35.3 L 278.101 30.2 A 5.26 5.26 0 0 0 277.962 28.935 Q 277.551 27.283 275.921 26.972 A 4.388 4.388 0 0 0 275.101 26.9 A 3.075 3.075 0 0 0 273.394 27.43 Q 272.963 27.712 272.555 28.142 A 5.989 5.989 0 0 0 272.501 28.2 Q 271.301 29.5 270.701 31.1 Z M 162.101 63.4 L 162.101 7.7 Q 162.101 5.4 161.201 1.6 Q 164.201 0 167.601 0 A 3.919 3.919 0 0 1 168.324 0.061 Q 169.528 0.288 169.596 1.367 A 2.103 2.103 0 0 1 169.601 1.5 L 169.601 61.4 A 9.31 9.31 0 0 0 169.654 62.431 Q 169.8 63.739 170.351 64.4 A 2.047 2.047 0 0 0 171.103 64.949 Q 171.888 65.3 173.201 65.3 A 8.6 8.6 0 0 1 173.207 65.631 Q 173.207 67.99 171.851 69.3 Q 170.622 70.487 168.424 70.668 A 10.033 10.033 0 0 1 167.601 70.7 A 7.287 7.287 0 0 1 165.992 70.534 Q 164.959 70.3 164.206 69.736 A 4.106 4.106 0 0 1 163.451 69 Q 162.229 67.462 162.113 64.123 A 20.774 20.774 0 0 1 162.101 63.4 Z M 288.701 20.7 L 298.701 20.7 L 298.701 61.4 A 9.31 9.31 0 0 0 298.754 62.431 Q 298.9 63.739 299.451 64.4 A 2.047 2.047 0 0 0 300.203 64.949 Q 300.988 65.3 302.301 65.3 A 8.6 8.6 0 0 1 302.307 65.631 Q 302.307 67.99 300.951 69.3 Q 299.722 70.487 297.524 70.668 A 10.033 10.033 0 0 1 296.701 70.7 A 7.287 7.287 0 0 1 295.092 70.534 Q 294.059 70.3 293.306 69.736 A 4.106 4.106 0 0 1 292.551 69 Q 291.329 67.462 291.213 64.123 A 20.774 20.774 0 0 1 291.201 63.4 L 291.201 26.7 L 288.101 27.2 A 24.072 24.072 0 0 1 287.674 25.342 Q 287.503 24.421 287.439 23.6 A 12.218 12.218 0 0 1 287.401 22.65 Q 287.401 20.7 288.701 20.7 Z M 333.001 20.7 L 343.001 20.7 L 343.001 61.4 A 9.31 9.31 0 0 0 343.054 62.431 Q 343.2 63.739 343.751 64.4 A 2.047 2.047 0 0 0 344.503 64.949 Q 345.288 65.3 346.601 65.3 A 8.6 8.6 0 0 1 346.607 65.631 Q 346.607 67.99 345.251 69.3 Q 344.022 70.487 341.824 70.668 A 10.033 10.033 0 0 1 341.001 70.7 A 7.287 7.287 0 0 1 339.392 70.534 Q 338.359 70.3 337.606 69.736 A 4.106 4.106 0 0 1 336.851 69 Q 335.629 67.462 335.513 64.123 A 20.774 20.774 0 0 1 335.501 63.4 L 335.501 26.7 L 332.401 27.2 A 24.072 24.072 0 0 1 331.974 25.342 Q 331.803 24.421 331.739 23.6 A 12.218 12.218 0 0 1 331.701 22.65 Q 331.701 20.7 333.001 20.7 Z M 184.701 29.2 L 184.701 43.5 L 189.501 39.9 Q 192.258 37.855 192.563 31.933 A 29.83 29.83 0 0 0 192.601 30.4 A 5.375 5.375 0 0 0 192.446 29.072 A 3.747 3.747 0 0 0 191.401 27.25 A 4.099 4.099 0 0 0 188.706 26.109 A 5.403 5.403 0 0 0 188.401 26.1 Q 185.133 26.1 184.751 28.518 A 4.375 4.375 0 0 0 184.701 29.2 Z M 45.901 48.2 L 41.101 51.4 A 7.035 7.035 0 0 0 38.193 55.55 Q 37.85 56.797 37.807 58.312 A 15.491 15.491 0 0 0 37.801 58.75 Q 37.801 62.168 39.188 63.318 A 2.67 2.67 0 0 0 40.951 63.9 A 4.819 4.819 0 0 0 44.747 62.081 Q 45.341 61.387 45.835 60.429 A 11.296 11.296 0 0 0 45.901 60.3 L 45.901 48.2 Z M 365.501 48.2 L 360.701 51.4 A 7.035 7.035 0 0 0 357.793 55.55 Q 357.45 56.797 357.407 58.312 A 15.491 15.491 0 0 0 357.401 58.75 Q 357.401 62.168 358.788 63.318 A 2.67 2.67 0 0 0 360.551 63.9 A 4.819 4.819 0 0 0 364.347 62.081 Q 364.941 61.387 365.435 60.429 A 11.296 11.296 0 0 0 365.501 60.3 L 365.501 48.2 Z M 292.92 11.198 A 4.54 4.54 0 0 0 294.901 11.6 Q 298.331 11.6 299.025 7.972 A 11.09 11.09 0 0 0 299.201 5.9 Q 299.201 1.714 296.881 0.602 A 4.54 4.54 0 0 0 294.901 0.2 Q 291.47 0.2 290.776 3.829 A 11.09 11.09 0 0 0 290.601 5.9 Q 290.601 10.086 292.92 11.198 Z M 337.22 11.198 A 4.54 4.54 0 0 0 339.201 11.6 Q 342.631 11.6 343.325 7.972 A 11.09 11.09 0 0 0 343.501 5.9 Q 343.501 1.714 341.181 0.602 A 4.54 4.54 0 0 0 339.201 0.2 Q 335.77 0.2 335.076 3.829 A 11.09 11.09 0 0 0 334.901 5.9 Q 334.901 10.086 337.22 11.198 Z" vector-effect="non-scaling-stroke"/></g></svg>